<svg width="185" height="176" viewBox="0 0 185 176" fill="none" xmlns="http://www.w3.org/2000/svg">
<g opacity="0.2">
<path d="M182.688 88C182.688 135.407 142.331 174 92.3439 174C42.3564 174 2 135.407 2 88C2 40.5932 42.3564 2 92.3439 2C142.331 2 182.688 40.5932 182.688 88Z" fill="#1C1B25" stroke="#1C1B25" stroke-width="4"/>
<path fill-rule="evenodd" clip-rule="evenodd" d="M93.2475 8.66108C142.981 9.32255 171.227 44.2154 172.094 92.1723C179.025 92.1723 161.696 123.096 161.523 123.096C161.279 128.454 157.854 132.171 154.397 135.923C152.946 137.498 151.489 139.08 150.259 140.791C149.168 141.716 147.993 142.561 146.851 143.381L146.85 143.381C146.36 143.733 145.876 144.081 145.407 144.429C144.541 145.917 143.154 146.744 141.595 147.24C138.996 149.721 136.05 151.87 132.064 152.697C130.549 149.484 132.632 147.832 134.658 146.224L134.837 146.083C134.837 145.586 135.01 145.256 135.183 144.925C134.057 144.925 133.104 145.462 132.151 146C131.198 146.537 130.245 147.075 129.118 147.075C128.129 147.21 127.256 147.454 126.31 147.719C126.095 147.779 125.877 147.84 125.652 147.902C122.013 149.886 118.028 151.209 113.869 152.036C113.176 152.036 112.483 152.201 111.79 152.367L111.789 152.367C111.616 152.449 111.399 152.491 111.183 152.532C110.966 152.573 110.75 152.615 110.576 152.697C110.23 152.863 109.71 152.863 109.363 152.863C96.7133 155.012 84.0633 155.178 71.5866 152.367C70.7201 152.284 69.8537 152.243 68.9872 152.201C68.1208 152.16 67.2544 152.119 66.3879 152.036C63.8449 152.141 61.4429 151.506 59.0019 150.861L59.0016 150.861C57.6171 150.495 56.2201 150.125 54.7776 149.886C60.1496 154.351 67.4277 155.839 73.666 156.832C84.4362 158.676 95.5365 157.686 106.528 156.706C109.331 156.456 112.127 156.206 114.909 156.005C117.183 155.896 118.86 154.72 120.528 153.55C121.402 152.937 122.273 152.325 123.226 151.87C125.133 151.044 127.212 150.382 128.252 152.697C129.291 155.178 127.039 156.005 125.133 156.501L124.652 156.638C112.686 160.065 100.869 163.448 87.7023 163.612C72.2797 163.777 60.4961 157.493 48.366 150.548C45.5934 148.894 44.5536 146.744 44.5536 144.264C44.2071 143.933 43.8605 143.602 43.3406 143.271C36.2358 139.799 28.9577 136.16 27.918 127.065C28.0913 126.734 28.0913 126.404 28.0913 126.238C26.1851 126.073 25.1454 125.411 26.0118 123.096C25.6653 122.931 25.3187 122.766 24.9721 122.766C23.9078 121.75 23.6538 120.425 23.3958 119.078C23.1917 118.013 22.985 116.935 22.3728 115.985C22.1995 114.993 22.1995 114.001 22.1995 113.009C18.907 108.875 18.0406 104.41 19.0803 99.6139C18.9772 99.2204 18.8128 98.8855 18.6601 98.5742C18.556 98.3622 18.4574 98.1612 18.3872 97.9602C17.5207 94.8182 17.694 91.5109 18.2139 88.2035C18.3005 87.9554 18.4305 87.6661 18.5604 87.3767L18.5605 87.3766L18.5605 87.3765C18.6905 87.0872 18.8204 86.7978 18.907 86.5498C19.1168 84.1975 19.0091 81.7997 18.9011 79.3931C18.6521 73.8482 18.401 68.2568 22.0262 63.0674C22.1756 62.1173 22.3035 61.1638 22.4309 60.2132C23.1911 54.5459 23.9371 48.9837 29.131 44.8768C30.6906 35.2855 38.4886 31.8127 46.4598 28.34C54.0845 22.3867 63.2687 19.41 72.6263 17.591C89.0886 14.449 105.551 14.6144 121.147 21.7252C125.306 22.7174 129.291 24.2057 131.024 28.5053C131.978 29.947 133.626 30.2397 135.28 30.5338C137.231 30.8806 139.191 31.229 140.035 33.4664C143.328 35.7816 146.447 38.0967 148.18 41.7348C148.922 42.9633 149.778 44.1378 150.634 45.3122C152.774 48.2483 154.913 51.1845 155.285 54.9643C159.74 60.7626 160.829 67.4643 161.913 74.131C162.22 76.0205 162.527 77.9072 162.909 79.7697C162.952 80.5023 163.079 81.2349 163.204 81.9601C163.588 84.1814 163.96 86.3334 161.87 88.2035C162.736 88.3688 163.602 88.6996 164.296 89.1957H166.028C166.288 88.9476 166.505 88.6996 166.722 88.4516C166.938 88.2035 167.155 87.9554 167.415 87.7074C166.697 86.0327 166.823 84.253 166.949 82.481C167.097 80.4034 167.244 78.3365 166.028 76.4623C163.809 72.3499 163.163 67.8619 162.535 63.4937L162.535 63.4933L162.535 63.493C162.329 62.0648 162.126 60.6493 161.87 59.2639C159.963 48.1842 153.032 41.4041 145.407 34.1279C144.684 33.4506 143.965 32.7712 143.247 32.0933C134.854 24.1641 126.667 16.4295 114.215 14.449C111.218 13.9722 108.31 13.2377 105.363 12.4931C104.221 12.2047 103.073 11.9148 101.912 11.6377C97.5797 11.6377 93.2475 11.5964 88.9153 11.555C84.5831 11.5137 80.251 11.4723 75.9188 11.4723C73.666 11.9685 71.4133 12.4646 69.3338 11.1416C71.4147 8.27327 74.1897 8.49601 76.9384 8.71665C78.31 8.82674 79.6751 8.93632 80.9441 8.66108C85.103 6.51128 89.0886 6.84202 93.2475 8.66108ZM151.299 124.419C151.646 124.915 151.992 125.411 152.339 126.073C152.512 125.411 152.859 124.915 153.725 124.254C153.465 124.254 153.205 124.213 152.945 124.171C152.685 124.13 152.425 124.089 152.165 124.089H151.819C151.646 124.254 151.472 124.419 151.299 124.419ZM141.923 137.636C141.885 137.649 141.843 137.649 141.768 137.649C141.682 137.731 141.638 137.773 141.638 137.814C141.638 137.855 141.682 137.897 141.768 137.979C142.027 137.733 142.286 137.578 142.545 137.446C142.389 137.483 142.22 137.483 142.115 137.483C142.016 137.578 141.973 137.618 141.923 137.636ZM14.704 61.5455C15.9736 57.2634 17.242 52.9854 20.8957 49.7555C21.809 53.9787 20.1541 57.5034 18.5102 61.0047C17.8157 62.484 17.1231 63.9592 16.6269 65.4811C17.1837 74.8458 15.6989 83.8571 9.57422 91.8083C9.78372 89.4647 9.83064 87.093 9.87764 84.717C9.9972 78.6735 10.1173 72.602 12.915 66.8947C13.6314 65.1633 14.1678 63.354 14.704 61.5455ZM67.4792 16.0076C69.7064 15.8309 71.1912 15.1242 69.5208 12.8272C68.5928 11.5903 67.108 10.0001 65.0665 11.767C62.2825 14.064 59.3129 16.5377 56.3434 19.1881C59.0908 19.9205 61.1225 18.7943 63.1319 17.6804C64.516 16.9132 65.8896 16.1518 67.4792 16.0076ZM29.2421 40.3896C29.9837 41.978 28.3151 43.037 27.2027 43.743C25.9049 44.6255 24.7925 44.096 24.4217 42.684C24.262 41.1635 25.3406 40.429 26.5908 39.5776C26.7918 39.4407 26.9973 39.3008 27.2027 39.1541C27.3636 39.2307 27.542 39.3073 27.7246 39.3857C28.3834 39.6686 29.0969 39.975 29.2421 40.3896Z" fill="#FF4342"/>
<path d="M122.863 74.0784C123.587 82.105 108.602 88.8255 101.849 76.4255C94.1376 62.253 111.8 59.9504 111.8 59.9504C111.8 59.9504 96.4247 42.8073 80.484 53.2988C73.0173 58.2089 36.1593 73.4134 59.9081 107.835C83.657 142.256 142.226 126.048 142.226 126.048C142.226 126.048 131.721 118.366 129.133 98.2182C127.215 83.3397 122.213 67.0189 122.863 74.0784Z" fill="#1C1B25" stroke="#1C1B25" stroke-width="4" stroke-linecap="round" stroke-linejoin="round"/>
<path fill-rule="evenodd" clip-rule="evenodd" d="M76.7511 61.8311C73.6544 51.8213 71.0577 43.141 71.3352 32.6316C72.1894 26.9613 64.6896 31.4902 63.1238 35.9586C60.3596 43.7832 60.1133 49.5518 71.4966 65.3211C70.2303 87.5708 78.7288 99.1603 78.7288 99.1603C77.6067 94.6195 76.8532 90.0038 76.4749 85.3541C76.0892 81.4438 76.305 77.5019 77.1155 73.6533C77.1155 73.6533 81.9315 81.8721 85.151 86.544C88.3704 91.2159 91.5992 96.2816 91.5992 96.2816L101.018 118.455C101.018 118.455 99.3313 113.159 97.6315 107.415C96.945 105.257 96.6791 102.999 96.8472 100.752C97.5991 101.392 118.729 112.521 118.729 112.521C118.729 112.521 108.106 105.505 104.593 102.847C101.196 100.27 98.1435 97.3069 95.5024 94.0234L111.044 95.2471C106.933 94.715 102.912 93.6688 99.0852 92.1355C92.7816 89.3389 91.5681 87.6621 91.5681 87.6621C84.5967 81.0839 80.7701 77.0316 78.7289 67.8932C78.2532 65.8182 77.5649 63.7814 76.7511 61.8311Z" fill="#5468FF"/>
</g>
</svg>
