<?xml version="1.0" encoding="utf-8"?>
<svg width="96" height="96" fill="none" viewBox="0 0 96 96" xmlns="http://www.w3.org/2000/svg">
  <mask id="mask0" width="96" height="96" x="0" y="0" mask-type="alpha" maskUnits="userSpaceOnUse">
    <path fill="#C4C4C4" fill-rule="evenodd" d="M96 0H0V96H69.7487C64.4865 92.6215 61 86.7179 61 80C61 69.5066 69.5066 61 80 61C86.7179 61 92.6215 64.4865 96 69.7487V0Z" clip-rule="evenodd"/>
  </mask>
  <g mask="url(#mask0)">
    <path d="M 48.002 0 C 21.547 0 0 21.547 0 48.002 C 0 74.453 21.547 96 48.002 96 C 74.453 96 96 74.453 96 48.002 C 96 21.547 74.453 0 48.002 0 Z" fill="#1C1B25" style=""/>
    <path d="M 48.463 4.729 C 74.311 5.084 88.996 24.106 89.458 50.275 C 93.05 50.275 84.053 67.129 83.947 67.129 C 83.806 70.045 82.027 72.071 80.249 74.134 C 79.502 74.987 78.72 75.841 78.116 76.801 C 77.547 77.299 76.942 77.76 76.338 78.224 C 76.09 78.401 75.841 78.614 75.592 78.791 C 75.129 79.61 74.418 80.071 73.599 80.32 C 72.25 81.672 70.721 82.844 68.658 83.307 C 67.876 81.564 68.943 80.64 70.01 79.787 L 70.116 79.716 C 70.116 79.43 70.223 79.253 70.294 79.076 C 69.725 79.076 69.226 79.361 68.728 79.644 C 68.232 79.928 67.734 80.214 67.165 80.214 C 66.668 80.284 66.204 80.426 65.706 80.569 C 65.6 80.604 65.493 80.64 65.351 80.675 C 63.466 81.742 61.405 82.488 59.236 82.915 C 58.881 82.915 58.524 83.022 58.169 83.093 C 58.062 83.129 57.956 83.164 57.848 83.199 C 57.742 83.235 57.635 83.235 57.53 83.307 C 57.351 83.414 57.067 83.414 56.889 83.414 C 50.313 84.587 43.734 84.694 37.263 83.129 C 36.801 83.093 36.374 83.058 35.911 83.022 C 35.45 82.986 35.022 82.986 34.561 82.915 C 33.244 82.986 32 82.632 30.72 82.276 C 30.009 82.062 29.263 81.885 28.516 81.742 C 31.325 84.161 35.094 84.978 38.329 85.547 C 43.911 86.543 49.706 86.008 55.396 85.475 C 56.853 85.333 58.311 85.192 59.769 85.085 C 60.943 85.013 61.832 84.373 62.684 83.734 C 63.146 83.414 63.609 83.058 64.071 82.809 C 65.067 82.347 66.133 81.991 66.668 83.271 C 67.201 84.622 66.027 85.085 65.031 85.333 L 64.782 85.404 C 58.561 87.289 52.409 89.104 45.582 89.209 C 37.582 89.316 31.432 85.867 25.138 82.098 C 23.681 81.209 23.147 80.036 23.147 78.685 C 22.969 78.507 22.791 78.33 22.506 78.152 C 18.809 76.267 15.041 74.276 14.506 69.297 C 14.613 69.12 14.613 68.942 14.613 68.836 C 13.617 68.728 13.085 68.373 13.547 67.129 C 13.369 67.024 13.191 66.951 13.014 66.951 C 12.444 66.382 12.338 65.672 12.197 64.925 C 12.089 64.356 11.982 63.751 11.662 63.254 C 11.555 62.72 11.555 62.187 11.555 61.619 C 9.85 59.378 9.388 56.925 9.92 54.328 C 9.85 54.116 9.778 53.938 9.707 53.761 C 9.637 53.654 9.601 53.547 9.565 53.44 C 9.102 51.733 9.21 49.92 9.458 48.107 C 9.494 47.965 9.565 47.821 9.637 47.644 C 9.707 47.503 9.778 47.324 9.814 47.182 C 9.92 45.903 9.85 44.587 9.814 43.271 C 9.671 40.249 9.565 37.191 11.449 34.383 C 11.519 33.848 11.59 33.351 11.662 32.818 C 12.054 29.724 12.444 26.703 15.147 24.463 C 15.964 19.236 20.018 17.351 24.142 15.432 C 28.088 12.195 32.889 10.56 37.761 9.564 C 46.329 7.858 54.863 7.93 62.969 11.804 C 65.139 12.338 67.201 13.156 68.089 15.502 C 68.587 16.284 69.441 16.462 70.294 16.605 C 71.324 16.782 72.321 16.995 72.783 18.206 C 74.489 19.484 76.125 20.729 77.013 22.719 C 77.404 23.395 77.832 24.037 78.293 24.676 C 79.396 26.276 80.535 27.875 80.712 29.938 C 83.022 33.103 83.591 36.764 84.161 40.392 C 84.302 41.423 84.481 42.454 84.694 43.485 C 84.729 43.875 84.764 44.267 84.836 44.693 C 85.049 45.903 85.226 47.076 84.124 48.107 C 84.587 48.214 85.013 48.392 85.369 48.641 L 86.258 48.641 C 86.4 48.497 86.507 48.356 86.613 48.248 C 86.721 48.107 86.828 47.965 86.97 47.857 C 86.579 46.933 86.649 45.974 86.721 45.013 C 86.792 43.875 86.862 42.738 86.258 41.741 C 85.12 39.501 84.764 37.05 84.445 34.667 C 84.338 33.884 84.232 33.103 84.089 32.356 C 83.094 26.311 79.502 22.613 75.521 18.632 C 75.129 18.275 74.773 17.885 74.383 17.529 C 70.01 13.191 65.778 8.995 59.308 7.893 C 57.742 7.644 56.25 7.218 54.72 6.827 C 54.116 6.684 53.547 6.506 52.941 6.364 C 50.703 6.364 48.428 6.329 46.186 6.329 C 43.947 6.293 41.672 6.293 39.431 6.293 C 38.258 6.578 37.084 6.827 36.018 6.115 C 37.084 4.551 38.542 4.658 39.965 4.8 C 40.676 4.871 41.386 4.907 42.063 4.765 C 44.232 3.556 46.329 3.733 48.463 4.729 Z M 73.742 75.093 L 73.707 75.093 C 73.671 75.128 73.636 75.165 73.636 75.2 C 73.636 75.236 73.671 75.236 73.707 75.307 C 73.848 75.165 73.991 75.093 74.097 75.022 C 74.027 75.057 73.92 75.057 73.885 75.057 C 73.814 75.057 73.814 75.057 73.742 75.093 C 73.779 75.093 73.742 75.093 73.742 75.093 Z M 7.644 33.565 C 8.32 31.218 8.96 28.908 10.88 27.129 C 11.341 29.44 10.49 31.359 9.637 33.28 C 9.28 34.097 8.924 34.88 8.64 35.733 C 8.924 40.853 8.142 45.76 4.978 50.098 C 5.084 48.818 5.12 47.538 5.12 46.222 C 5.192 42.915 5.261 39.609 6.685 36.515 C 7.077 35.555 7.36 34.561 7.644 33.565 Z M 35.094 8.746 C 36.266 8.64 37.014 8.249 36.16 7.005 C 35.662 6.329 34.916 5.475 33.849 6.435 C 32.391 7.681 30.861 9.03 29.298 10.49 C 30.72 10.88 31.787 10.276 32.818 9.671 C 33.529 9.208 34.241 8.818 35.094 8.746 Z M 15.219 22.044 C 15.609 22.898 14.721 23.503 14.151 23.893 C 13.475 24.391 12.907 24.071 12.693 23.325 C 12.623 22.506 13.156 22.08 13.832 21.617 C 13.938 21.547 14.045 21.476 14.151 21.37 C 14.222 21.405 14.328 21.44 14.436 21.511 C 14.756 21.654 15.147 21.795 15.219 22.044 Z" fill="#FF4342" style=""/>
    <path d="M 74.311 68.16 C 74.311 68.16 72.996 67.129 71.537 64.818 C 70.187 62.684 68.445 58.987 67.769 53.477 C 67.414 50.453 66.738 46.933 65.991 43.769 C 64.748 38.649 64.356 38.685 63.787 38.755 C 62.969 38.826 63.04 39.823 63.112 40.463 C 63.254 42.169 61.832 43.911 59.769 44.516 C 57.281 45.227 54.933 44.053 53.547 41.386 C 52.515 39.396 52.338 37.761 53.014 36.443 C 54.293 33.991 58.133 33.422 58.169 33.422 C 58.418 33.386 58.632 33.209 58.738 32.96 C 58.845 32.711 58.773 32.428 58.632 32.249 C 58.561 32.142 56.499 29.796 53.405 28.124 C 49.174 25.884 45.049 25.992 41.423 28.515 C 41.032 28.8 40.427 29.121 39.751 29.547 C 35.804 31.893 28.445 36.266 26.703 43.875 C 25.635 48.569 26.915 53.725 30.543 59.236 C 35.733 67.129 44.943 71.396 57.138 71.573 C 57.423 71.573 57.707 71.573 57.991 71.573 C 66.775 71.573 73.814 69.546 74.134 69.475 C 74.383 69.404 74.595 69.191 74.63 68.942 C 74.63 68.587 74.524 68.338 74.311 68.16 Z" fill="#1C1B25" style=""/>
    <path d="M 39.894 33.671 C 38.293 28.232 36.942 23.503 37.084 17.779 C 37.512 14.684 33.635 17.137 32.818 19.591 C 31.397 23.858 31.254 27.023 37.156 35.627 C 36.515 47.752 40.925 54.079 40.925 54.079 C 40.355 51.591 39.965 49.102 39.751 46.543 C 39.539 44.409 39.68 42.275 40.072 40.178 C 40.072 40.178 42.561 44.657 44.232 47.217 C 45.903 49.778 47.574 52.515 47.574 52.515 L 52.48 64.604 C 52.48 64.604 51.591 61.725 50.703 58.595 C 50.347 57.423 50.204 56.178 50.313 54.969 C 50.703 55.324 61.689 61.404 61.689 61.404 C 61.689 61.404 56.178 57.564 54.328 56.144 C 52.551 54.72 50.987 53.12 49.6 51.343 L 57.671 52.017 C 55.537 51.733 53.44 51.165 51.45 50.311 C 48.179 48.783 47.539 47.857 47.539 47.857 C 43.911 44.267 41.921 42.062 40.853 37.084 C 40.676 35.876 40.321 34.773 39.894 33.671 Z" fill="#5468FF" style=""/>
  </g>
  <path fill="#31D0AA" d="M 96 80.001 C 96 88.837 88.837 96 80.001 96 C 71.164 96 64 88.837 64 80.001 C 64 71.164 71.164 64 80.001 64 C 88.837 64 96 71.164 96 80.001 Z"/>
  <path fill="#191326" fill-rule="evenodd" d="M 80.001 94 C 87.732 94 94 87.732 94 80.001 C 94 72.268 87.732 66 80.001 66 C 72.268 66 66 72.268 66 80.001 C 66 87.732 72.268 94 80.001 94 Z M 80.001 96 C 88.837 96 96 88.837 96 80.001 C 96 71.164 88.837 64 80.001 64 C 71.164 64 64 71.164 64 80.001 C 64 88.837 71.164 96 80.001 96 Z" clip-rule="evenodd"/>
  <path fill="#191326" d="M 80.001 74 L 80.001 75.791 C 80.001 76.24 80.541 76.461 80.849 76.14 L 83.64 73.349 C 83.841 73.151 83.841 72.84 83.64 72.64 L 80.849 69.851 C 80.541 69.54 80.001 69.76 80.001 70.211 L 80.001 72 C 75.58 72 72 75.58 72 80.001 C 72 81.04 72.2 82.041 72.569 82.949 C 72.84 83.62 73.7 83.8 74.211 83.291 C 74.481 83.02 74.591 82.611 74.44 82.251 C 74.151 81.561 74 80.789 74 80.001 C 74 76.691 76.691 74 80.001 74 Z M 85.791 76.709 C 85.521 76.98 85.409 77.4 85.56 77.751 C 85.84 78.449 86.001 79.211 86.001 80.001 C 86.001 83.309 83.309 86.001 80.001 86.001 L 80.001 84.209 C 80.001 83.76 79.461 83.541 79.151 83.86 L 76.36 86.651 C 76.161 86.849 76.161 87.16 76.36 87.36 L 79.151 90.149 C 79.461 90.46 80.001 90.24 80.001 89.8 L 80.001 88 C 84.42 88 88 84.42 88 80.001 C 88 78.96 87.801 77.961 87.431 77.051 C 87.16 76.38 86.301 76.2 85.791 76.709 Z"/>
</svg>