<?xml version="1.0" encoding="utf-8"?>
<svg width="96" height="96" fill="none" viewBox="0 0 96 96" xmlns="http://www.w3.org/2000/svg">
  <mask id="mask0" width="96" height="96" x="0" y="0" mask-type="alpha" maskUnits="userSpaceOnUse">
    <path fill="#C4C4C4" fill-rule="evenodd" d="M96 0H0V96H69.7487C64.4865 92.6215 61 86.7179 61 80C61 69.5066 69.5066 61 80 61C86.7179 61 92.6215 64.4865 96 69.7487V0Z" clip-rule="evenodd"/>
  </mask>
  <g mask="url(#mask0)">
    <path d="M 48.002 0 C 21.547 0 0 21.547 0 48.002 C 0 74.453 21.547 96 48.002 96 C 74.453 96 96 74.453 96 48.002 C 96 21.547 74.453 0 48.002 0 Z" fill="#1C1B25" style=""/>
    <path d="M 48.463 4.729 C 74.311 5.084 88.996 24.106 89.458 50.275 C 93.05 50.275 84.053 67.129 83.947 67.129 C 83.806 70.045 82.027 72.071 80.249 74.134 C 79.502 74.987 78.72 75.841 78.116 76.801 C 77.547 77.299 76.942 77.76 76.338 78.224 C 76.09 78.401 75.841 78.614 75.592 78.791 C 75.129 79.61 74.418 80.071 73.599 80.32 C 72.25 81.672 70.721 82.844 68.658 83.307 C 67.876 81.564 68.943 80.64 70.01 79.787 L 70.116 79.716 C 70.116 79.43 70.223 79.253 70.294 79.076 C 69.725 79.076 69.226 79.361 68.728 79.644 C 68.232 79.928 67.734 80.214 67.165 80.214 C 66.668 80.284 66.204 80.426 65.706 80.569 C 65.6 80.604 65.493 80.64 65.351 80.675 C 63.466 81.742 61.405 82.488 59.236 82.915 C 58.881 82.915 58.524 83.022 58.169 83.093 C 58.062 83.129 57.956 83.164 57.848 83.199 C 57.742 83.235 57.635 83.235 57.53 83.307 C 57.351 83.414 57.067 83.414 56.889 83.414 C 50.313 84.587 43.734 84.694 37.263 83.129 C 36.801 83.093 36.374 83.058 35.911 83.022 C 35.45 82.986 35.022 82.986 34.561 82.915 C 33.244 82.986 32 82.632 30.72 82.276 C 30.009 82.062 29.263 81.885 28.516 81.742 C 31.325 84.161 35.094 84.978 38.329 85.547 C 43.911 86.543 49.706 86.008 55.396 85.475 C 56.853 85.333 58.311 85.192 59.769 85.085 C 60.943 85.013 61.832 84.373 62.684 83.734 C 63.146 83.414 63.609 83.058 64.071 82.809 C 65.067 82.347 66.133 81.991 66.668 83.271 C 67.201 84.622 66.027 85.085 65.031 85.333 L 64.782 85.404 C 58.561 87.289 52.409 89.104 45.582 89.209 C 37.582 89.316 31.432 85.867 25.138 82.098 C 23.681 81.209 23.147 80.036 23.147 78.685 C 22.969 78.507 22.791 78.33 22.506 78.152 C 18.809 76.267 15.041 74.276 14.506 69.297 C 14.613 69.12 14.613 68.942 14.613 68.836 C 13.617 68.728 13.085 68.373 13.547 67.129 C 13.369 67.024 13.191 66.951 13.014 66.951 C 12.444 66.382 12.338 65.672 12.197 64.925 C 12.089 64.356 11.982 63.751 11.662 63.254 C 11.555 62.72 11.555 62.187 11.555 61.619 C 9.85 59.378 9.388 56.925 9.92 54.328 C 9.85 54.116 9.778 53.938 9.707 53.761 C 9.637 53.654 9.601 53.547 9.565 53.44 C 9.102 51.733 9.21 49.92 9.458 48.107 C 9.494 47.965 9.565 47.821 9.637 47.644 C 9.707 47.503 9.778 47.324 9.814 47.182 C 9.92 45.903 9.85 44.587 9.814 43.271 C 9.671 40.249 9.565 37.191 11.449 34.383 C 11.519 33.848 11.59 33.351 11.662 32.818 C 12.054 29.724 12.444 26.703 15.147 24.463 C 15.964 19.236 20.018 17.351 24.142 15.432 C 28.088 12.195 32.889 10.56 37.761 9.564 C 46.329 7.858 54.863 7.93 62.969 11.804 C 65.139 12.338 67.201 13.156 68.089 15.502 C 68.587 16.284 69.441 16.462 70.294 16.605 C 71.324 16.782 72.321 16.995 72.783 18.206 C 74.489 19.484 76.125 20.729 77.013 22.719 C 77.404 23.395 77.832 24.037 78.293 24.676 C 79.396 26.276 80.535 27.875 80.712 29.938 C 83.022 33.103 83.591 36.764 84.161 40.392 C 84.302 41.423 84.481 42.454 84.694 43.485 C 84.729 43.875 84.764 44.267 84.836 44.693 C 85.049 45.903 85.226 47.076 84.124 48.107 C 84.587 48.214 85.013 48.392 85.369 48.641 L 86.258 48.641 C 86.4 48.497 86.507 48.356 86.613 48.248 C 86.721 48.107 86.828 47.965 86.97 47.857 C 86.579 46.933 86.649 45.974 86.721 45.013 C 86.792 43.875 86.862 42.738 86.258 41.741 C 85.12 39.501 84.764 37.05 84.445 34.667 C 84.338 33.884 84.232 33.103 84.089 32.356 C 83.094 26.311 79.502 22.613 75.521 18.632 C 75.129 18.275 74.773 17.885 74.383 17.529 C 70.01 13.191 65.778 8.995 59.308 7.893 C 57.742 7.644 56.25 7.218 54.72 6.827 C 54.116 6.684 53.547 6.506 52.941 6.364 C 50.703 6.364 48.428 6.329 46.186 6.329 C 43.947 6.293 41.672 6.293 39.431 6.293 C 38.258 6.578 37.084 6.827 36.018 6.115 C 37.084 4.551 38.542 4.658 39.965 4.8 C 40.676 4.871 41.386 4.907 42.063 4.765 C 44.232 3.556 46.329 3.733 48.463 4.729 Z M 73.742 75.093 L 73.707 75.093 C 73.671 75.128 73.636 75.165 73.636 75.2 C 73.636 75.236 73.671 75.236 73.707 75.307 C 73.848 75.165 73.991 75.093 74.097 75.022 C 74.027 75.057 73.92 75.057 73.885 75.057 C 73.814 75.057 73.814 75.057 73.742 75.093 C 73.779 75.093 73.742 75.093 73.742 75.093 Z M 7.644 33.565 C 8.32 31.218 8.96 28.908 10.88 27.129 C 11.341 29.44 10.49 31.359 9.637 33.28 C 9.28 34.097 8.924 34.88 8.64 35.733 C 8.924 40.853 8.142 45.76 4.978 50.098 C 5.084 48.818 5.12 47.538 5.12 46.222 C 5.192 42.915 5.261 39.609 6.685 36.515 C 7.077 35.555 7.36 34.561 7.644 33.565 Z M 35.094 8.746 C 36.266 8.64 37.014 8.249 36.16 7.005 C 35.662 6.329 34.916 5.475 33.849 6.435 C 32.391 7.681 30.861 9.03 29.298 10.49 C 30.72 10.88 31.787 10.276 32.818 9.671 C 33.529 9.208 34.241 8.818 35.094 8.746 Z M 15.219 22.044 C 15.609 22.898 14.721 23.503 14.151 23.893 C 13.475 24.391 12.907 24.071 12.693 23.325 C 12.623 22.506 13.156 22.08 13.832 21.617 C 13.938 21.547 14.045 21.476 14.151 21.37 C 14.222 21.405 14.328 21.44 14.436 21.511 C 14.756 21.654 15.147 21.795 15.219 22.044 Z" fill="#FF4342" style=""/>
    <path d="M 74.311 68.16 C 74.311 68.16 72.996 67.129 71.537 64.818 C 70.187 62.684 68.445 58.987 67.769 53.477 C 67.414 50.453 66.738 46.933 65.991 43.769 C 64.748 38.649 64.356 38.685 63.787 38.755 C 62.969 38.826 63.04 39.823 63.112 40.463 C 63.254 42.169 61.832 43.911 59.769 44.516 C 57.281 45.227 54.933 44.053 53.547 41.386 C 52.515 39.396 52.338 37.761 53.014 36.443 C 54.293 33.991 58.133 33.422 58.169 33.422 C 58.418 33.386 58.632 33.209 58.738 32.96 C 58.845 32.711 58.773 32.428 58.632 32.249 C 58.561 32.142 56.499 29.796 53.405 28.124 C 49.174 25.884 45.049 25.992 41.423 28.515 C 41.032 28.8 40.427 29.121 39.751 29.547 C 35.804 31.893 28.445 36.266 26.703 43.875 C 25.635 48.569 26.915 53.725 30.543 59.236 C 35.733 67.129 44.943 71.396 57.138 71.573 C 57.423 71.573 57.707 71.573 57.991 71.573 C 66.775 71.573 73.814 69.546 74.134 69.475 C 74.383 69.404 74.595 69.191 74.63 68.942 C 74.63 68.587 74.524 68.338 74.311 68.16 Z" fill="#1C1B25" style=""/>
    <path d="M 39.894 33.671 C 38.293 28.232 36.942 23.503 37.084 17.779 C 37.512 14.684 33.635 17.137 32.818 19.591 C 31.397 23.858 31.254 27.023 37.156 35.627 C 36.515 47.752 40.925 54.079 40.925 54.079 C 40.355 51.591 39.965 49.102 39.751 46.543 C 39.539 44.409 39.68 42.275 40.072 40.178 C 40.072 40.178 42.561 44.657 44.232 47.217 C 45.903 49.778 47.574 52.515 47.574 52.515 L 52.48 64.604 C 52.48 64.604 51.591 61.725 50.703 58.595 C 50.347 57.423 50.204 56.178 50.313 54.969 C 50.703 55.324 61.689 61.404 61.689 61.404 C 61.689 61.404 56.178 57.564 54.328 56.144 C 52.551 54.72 50.987 53.12 49.6 51.343 L 57.671 52.017 C 55.537 51.733 53.44 51.165 51.45 50.311 C 48.179 48.783 47.539 47.857 47.539 47.857 C 43.911 44.267 41.921 42.062 40.853 37.084 C 40.676 35.876 40.321 34.773 39.894 33.671 Z" fill="#5468FF" style=""/>
  </g>
  <path d="M 80.001 64 C 71.182 64 64 71.182 64 80.001 C 64 88.818 71.182 96 80.001 96 C 88.818 96 96 88.818 96 80.001 C 96 71.182 88.818 64 80.001 64 Z" fill="#1C1B25" style=""/>
  <path d="M 80.154 65.576 C 88.77 65.695 93.665 72.035 93.819 80.758 C 95.017 80.758 92.018 86.376 91.982 86.376 C 91.935 87.348 91.342 88.024 90.75 88.711 C 90.501 88.996 90.24 89.28 90.039 89.6 C 89.849 89.766 89.647 89.92 89.446 90.075 C 89.363 90.134 89.28 90.205 89.197 90.264 C 89.043 90.537 88.806 90.69 88.533 90.773 C 88.083 91.224 87.574 91.615 86.886 91.769 C 86.625 91.188 86.981 90.88 87.337 90.596 L 87.372 90.572 C 87.372 90.477 87.408 90.418 87.431 90.359 C 87.242 90.359 87.075 90.454 86.909 90.548 C 86.744 90.643 86.578 90.738 86.388 90.738 C 86.223 90.761 86.068 90.809 85.902 90.856 C 85.867 90.868 85.831 90.88 85.784 90.892 C 85.155 91.247 84.468 91.496 83.745 91.638 C 83.627 91.638 83.508 91.674 83.39 91.698 C 83.354 91.71 83.319 91.721 83.283 91.733 C 83.247 91.745 83.212 91.745 83.177 91.769 C 83.117 91.805 83.022 91.805 82.963 91.805 C 80.771 92.196 78.578 92.231 76.421 91.71 C 76.267 91.698 76.125 91.686 75.97 91.674 C 75.817 91.662 75.674 91.662 75.52 91.638 C 75.081 91.662 74.667 91.544 74.24 91.425 C 74.003 91.354 73.754 91.295 73.505 91.247 C 74.442 92.054 75.698 92.326 76.776 92.516 C 78.637 92.848 80.569 92.669 82.465 92.492 C 82.951 92.444 83.437 92.397 83.923 92.362 C 84.314 92.338 84.611 92.124 84.895 91.911 C 85.049 91.805 85.203 91.686 85.357 91.603 C 85.689 91.449 86.044 91.33 86.223 91.757 C 86.4 92.207 86.009 92.362 85.677 92.444 L 85.594 92.468 C 83.52 93.096 81.47 93.701 79.194 93.736 C 76.527 93.772 74.477 92.622 72.379 91.366 C 71.894 91.07 71.716 90.679 71.716 90.228 C 71.656 90.169 71.597 90.11 71.502 90.051 C 70.27 89.422 69.014 88.759 68.835 87.099 C 68.871 87.04 68.871 86.981 68.871 86.945 C 68.539 86.909 68.362 86.791 68.516 86.376 C 68.456 86.341 68.397 86.317 68.338 86.317 C 68.148 86.127 68.113 85.891 68.066 85.642 C 68.03 85.452 67.994 85.25 67.887 85.085 C 67.852 84.907 67.852 84.729 67.852 84.54 C 67.283 83.793 67.129 82.975 67.307 82.109 C 67.283 82.039 67.259 81.979 67.236 81.92 C 67.212 81.885 67.2 81.849 67.188 81.813 C 67.034 81.244 67.07 80.64 67.153 80.036 C 67.165 79.988 67.188 79.94 67.212 79.881 C 67.236 79.834 67.259 79.775 67.271 79.727 C 67.307 79.301 67.283 78.862 67.271 78.424 C 67.224 77.416 67.188 76.397 67.816 75.461 C 67.84 75.283 67.863 75.117 67.887 74.939 C 68.018 73.908 68.148 72.901 69.049 72.154 C 69.321 70.412 70.673 69.784 72.047 69.144 C 73.363 68.065 74.963 67.52 76.587 67.188 C 79.443 66.619 82.288 66.643 84.99 67.935 C 85.713 68.113 86.4 68.385 86.696 69.167 C 86.862 69.428 87.147 69.487 87.431 69.535 C 87.775 69.594 88.107 69.665 88.261 70.069 C 88.83 70.495 89.375 70.91 89.671 71.573 C 89.801 71.798 89.944 72.012 90.098 72.225 C 90.465 72.759 90.845 73.292 90.904 73.979 C 91.674 75.034 91.864 76.255 92.054 77.464 C 92.101 77.808 92.16 78.151 92.231 78.495 C 92.243 78.625 92.255 78.756 92.279 78.898 C 92.35 79.301 92.409 79.692 92.041 80.036 C 92.196 80.071 92.338 80.131 92.456 80.214 L 92.753 80.214 C 92.8 80.166 92.836 80.119 92.871 80.083 C 92.907 80.036 92.943 79.988 92.99 79.952 C 92.86 79.644 92.883 79.325 92.907 79.004 C 92.931 78.625 92.954 78.246 92.753 77.914 C 92.373 77.167 92.255 76.35 92.148 75.556 C 92.113 75.295 92.077 75.034 92.03 74.785 C 91.698 72.77 90.501 71.538 89.174 70.211 C 89.043 70.092 88.924 69.962 88.794 69.843 C 87.337 68.397 85.926 66.998 83.769 66.631 C 83.247 66.548 82.75 66.406 82.24 66.276 C 82.039 66.228 81.849 66.169 81.647 66.121 C 80.901 66.121 80.143 66.11 79.395 66.11 C 78.649 66.098 77.891 66.098 77.144 66.098 C 76.753 66.193 76.361 66.276 76.006 66.038 C 76.361 65.517 76.847 65.553 77.322 65.6 C 77.559 65.624 77.795 65.636 78.021 65.588 C 78.744 65.185 79.443 65.244 80.154 65.576 Z M 88.581 89.031 L 88.569 89.031 C 88.557 89.043 88.545 89.055 88.545 89.067 C 88.545 89.079 88.557 89.079 88.569 89.102 C 88.616 89.055 88.664 89.031 88.699 89.007 C 88.676 89.019 88.64 89.019 88.628 89.019 C 88.605 89.019 88.605 89.019 88.581 89.031 C 88.593 89.031 88.581 89.031 88.581 89.031 Z M 66.548 75.188 C 66.773 74.406 66.987 73.636 67.627 73.043 C 67.78 73.813 67.497 74.453 67.212 75.093 C 67.093 75.366 66.975 75.627 66.88 75.911 C 66.975 77.618 66.714 79.253 65.659 80.699 C 65.695 80.273 65.707 79.846 65.707 79.407 C 65.731 78.305 65.754 77.203 66.228 76.172 C 66.359 75.852 66.453 75.52 66.548 75.188 Z M 75.698 66.915 C 76.089 66.88 76.338 66.75 76.053 66.335 C 75.887 66.11 75.639 65.825 75.283 66.145 C 74.797 66.56 74.287 67.01 73.766 67.497 C 74.24 67.627 74.596 67.425 74.939 67.224 C 75.176 67.069 75.414 66.939 75.698 66.915 Z M 69.073 71.348 C 69.203 71.633 68.907 71.834 68.717 71.964 C 68.492 72.13 68.302 72.024 68.231 71.775 C 68.208 71.502 68.385 71.36 68.611 71.206 C 68.646 71.182 68.682 71.159 68.717 71.123 C 68.741 71.135 68.776 71.147 68.812 71.17 C 68.919 71.218 69.049 71.265 69.073 71.348 Z" fill="#FF4342" style=""/>
  <path d="M 88.77 86.72 C 88.77 86.72 88.332 86.376 87.846 85.606 C 87.396 84.895 86.815 83.662 86.59 81.826 C 86.471 80.818 86.246 79.644 85.997 78.59 C 85.583 76.883 85.452 76.895 85.262 76.918 C 84.99 76.942 85.013 77.274 85.037 77.488 C 85.085 78.056 84.611 78.637 83.923 78.839 C 83.094 79.076 82.311 78.684 81.849 77.795 C 81.505 77.132 81.446 76.587 81.671 76.148 C 82.098 75.33 83.378 75.141 83.39 75.141 C 83.473 75.129 83.544 75.07 83.579 74.987 C 83.615 74.904 83.591 74.809 83.544 74.75 C 83.52 74.714 82.833 73.932 81.802 73.375 C 80.391 72.628 79.016 72.664 77.808 73.505 C 77.677 73.6 77.476 73.707 77.25 73.849 C 75.935 74.631 73.482 76.089 72.901 78.625 C 72.545 80.19 72.972 81.908 74.181 83.745 C 75.911 86.376 78.981 87.799 83.046 87.858 C 83.141 87.858 83.236 87.858 83.33 87.858 C 86.258 87.858 88.605 87.182 88.711 87.158 C 88.794 87.135 88.865 87.064 88.877 86.981 C 88.877 86.862 88.841 86.779 88.77 86.72 Z" fill="#1C1B25" style=""/>
  <path d="M 77.298 75.224 C 76.764 73.411 76.314 71.834 76.361 69.926 C 76.504 68.895 75.212 69.712 74.939 70.53 C 74.466 71.953 74.418 73.008 76.385 75.876 C 76.172 79.917 77.642 82.026 77.642 82.026 C 77.452 81.197 77.322 80.367 77.25 79.514 C 77.18 78.803 77.227 78.092 77.357 77.393 C 77.357 77.393 78.187 78.886 78.744 79.739 C 79.301 80.593 79.858 81.505 79.858 81.505 L 81.493 85.535 C 81.493 85.535 81.197 84.575 80.901 83.532 C 80.782 83.141 80.735 82.726 80.771 82.323 C 80.901 82.441 84.563 84.468 84.563 84.468 C 84.563 84.468 82.726 83.188 82.109 82.715 C 81.517 82.24 80.996 81.707 80.533 81.114 L 83.224 81.339 C 82.512 81.244 81.813 81.055 81.15 80.77 C 80.06 80.261 79.846 79.952 79.846 79.952 C 78.637 78.756 77.974 78.021 77.618 76.361 C 77.559 75.959 77.44 75.591 77.298 75.224 Z" fill="#5468FF" style=""/>
</svg>